<svg width="93" height="64" viewBox="0 0 93 64" fill="none" xmlns="http://www.w3.org/2000/svg">
<g clip-path="url(#clip0_208_536)">
<path d="M26.172 24.4302C26.172 25.5687 26.2931 26.4917 26.5052 27.1687C26.7475 27.8456 27.0504 28.584 27.4744 29.384C27.6258 29.6302 27.6864 29.8764 27.6864 30.0917C27.6864 30.3994 27.5047 30.7071 27.1109 31.0148L25.2028 32.3071C24.9302 32.4917 24.6576 32.584 24.4153 32.584C24.1124 32.584 23.8095 32.4302 23.5066 32.1533C23.0826 31.6917 22.7191 31.1994 22.4162 30.7071C22.1133 30.184 21.8105 29.5994 21.4773 28.8917C19.1148 31.7225 16.1465 33.1379 12.5725 33.1379C10.0282 33.1379 7.99892 32.3994 6.51478 30.9225C5.03065 29.4456 4.27344 27.4764 4.27344 25.0148C4.27344 22.3994 5.18209 20.2764 7.02969 18.6764C8.87728 17.0764 11.3306 16.2764 14.4504 16.2764C15.4802 16.2764 16.5403 16.3687 17.6609 16.5225C18.7816 16.6764 19.9326 16.9225 21.1441 17.1994V14.9533C21.1441 12.6148 20.6595 10.984 19.7206 10.0302C18.7513 9.07635 17.1157 8.61481 14.7835 8.61481C13.7234 8.61481 12.6331 8.73789 11.5124 9.01481C10.3917 9.29174 9.30132 9.6302 8.24123 10.061C7.75661 10.2764 7.39315 10.3994 7.18113 10.461C6.96911 10.5225 6.81767 10.5533 6.69651 10.5533C6.27248 10.5533 6.06046 10.2456 6.06046 9.59943V8.09174C6.06046 7.59943 6.12103 7.2302 6.27248 7.01481C6.42392 6.79943 6.69651 6.58404 7.12055 6.36866C8.18065 5.81481 9.45276 5.35328 10.9369 4.98404C12.421 4.58404 13.996 4.39943 15.6619 4.39943C19.2662 4.39943 21.9013 5.2302 23.5975 6.89174C25.2633 8.55328 26.1114 11.0764 26.1114 14.461V24.4302H26.172ZM13.8749 29.1071C14.8744 29.1071 15.9042 28.9225 16.9946 28.5533C18.085 28.184 19.0542 27.5071 19.872 26.584C20.3566 25.9994 20.7201 25.3533 20.9018 24.6148C21.0835 23.8764 21.2047 22.984 21.2047 21.9379V20.6456C20.3263 20.4302 19.3874 20.2456 18.4181 20.1225C17.4489 19.9994 16.51 19.9379 15.571 19.9379C13.5417 19.9379 12.0576 20.3379 11.0581 21.1687C10.0585 21.9994 9.57392 23.1687 9.57392 24.7071C9.57392 26.1533 9.93738 27.2302 10.6946 27.9687C11.4215 28.7379 12.4816 29.1071 13.8749 29.1071ZM38.1965 32.4302C37.6513 32.4302 37.2879 32.3379 37.0456 32.1225C36.8032 31.9379 36.5912 31.5071 36.4095 30.9225L29.2917 7.13789C29.11 6.52251 29.0191 6.12251 29.0191 5.90712C29.0191 5.41481 29.2614 5.13789 29.746 5.13789H32.7143C33.2898 5.13789 33.6835 5.2302 33.8956 5.44558C34.1379 5.6302 34.3196 6.06097 34.5013 6.64558L39.5898 27.0148L44.3148 6.64558C44.4662 6.0302 44.648 5.6302 44.8903 5.44558C45.1326 5.26097 45.5566 5.13789 46.1018 5.13789H48.5249C49.1004 5.13789 49.4941 5.2302 49.7364 5.44558C49.9787 5.6302 50.1907 6.06097 50.3119 6.64558L55.0975 27.261L60.3374 6.64558C60.5191 6.0302 60.7311 5.6302 60.9431 5.44558C61.1855 5.26097 61.5792 5.13789 62.1244 5.13789H64.9412C65.4258 5.13789 65.6984 5.38404 65.6984 5.90712C65.6984 6.06097 65.6681 6.21481 65.6379 6.39943C65.6076 6.58404 65.547 6.8302 65.4258 7.16866L58.1263 30.9533C57.9446 31.5687 57.7326 31.9687 57.4903 32.1533C57.248 32.3379 56.8542 32.461 56.3393 32.461H53.7345C53.159 32.461 52.7653 32.3687 52.523 32.1533C52.2806 31.9379 52.0686 31.5379 51.9475 30.9225L47.2528 11.0764L42.5883 30.8917C42.4369 31.5071 42.2552 31.9071 42.0129 32.1225C41.7706 32.3379 41.3465 32.4302 40.8013 32.4302H38.1965ZM77.1172 33.261C75.5422 33.261 73.9672 33.0764 72.4528 32.7071C70.9383 32.3379 69.7571 31.9379 68.9696 31.4764C68.485 31.1994 68.1518 30.8917 68.0306 30.6148C67.9095 30.3379 67.8489 30.0302 67.8489 29.7533V28.184C67.8489 27.5379 68.0912 27.2302 68.5456 27.2302C68.7273 27.2302 68.909 27.261 69.0907 27.3225C69.2725 27.384 69.5451 27.5071 69.848 27.6302C70.8778 28.0917 71.9984 28.461 73.1797 28.7071C74.3912 28.9533 75.5725 29.0764 76.784 29.0764C78.6922 29.0764 80.1763 28.7379 81.2061 28.061C82.2359 27.384 82.7811 26.3994 82.7811 25.1379C82.7811 24.2764 82.5085 23.5687 81.9633 22.984C81.4181 22.3994 80.3883 21.8764 78.9042 21.384L74.5124 19.9994C72.3013 19.2917 70.6657 18.2456 69.6662 16.861C68.6667 15.5071 68.1518 13.9994 68.1518 12.3994C68.1518 11.1071 68.4244 9.96866 68.9696 8.98405C69.5148 7.99943 70.2417 7.13789 71.1504 6.46097C72.059 5.75328 73.0888 5.2302 74.3004 4.86097C75.5119 4.49174 76.784 4.33789 78.1167 4.33789C78.783 4.33789 79.4797 4.36866 80.146 4.46097C80.8427 4.55328 81.4787 4.67635 82.1148 4.79943C82.7206 4.95328 83.296 5.10712 83.8412 5.29174C84.3864 5.47635 84.8105 5.66097 85.1133 5.84558C85.5374 6.09174 85.8403 6.33789 86.022 6.61481C86.2037 6.86097 86.2946 7.19943 86.2946 7.6302V9.07635C86.2946 9.72251 86.0523 10.061 85.598 10.061C85.3556 10.061 84.9619 9.93789 84.447 9.69174C82.7205 8.89174 80.7821 8.49174 78.6316 8.49174C76.9052 8.49174 75.5422 8.76866 74.6032 9.35328C73.6643 9.93789 73.1797 10.8302 73.1797 12.0917C73.1797 12.9533 73.4826 13.6917 74.0883 14.2764C74.6941 14.861 75.8148 15.4456 77.4201 15.9687L81.721 17.3533C83.9018 18.061 85.4768 19.0456 86.4157 20.3071C87.3547 21.5687 87.809 23.0148 87.809 24.6148C87.809 25.9379 87.5364 27.1379 87.0215 28.184C86.4763 29.2302 85.7494 30.1533 84.8105 30.8917C83.8715 31.661 82.7508 32.2148 81.4484 32.6148C80.0855 33.0456 78.6619 33.261 77.1172 33.261Z" fill="white"/>
<path fill-rule="evenodd" clip-rule="evenodd" d="M82.8416 48.2152C72.8766 55.6921 58.3988 59.6613 45.9502 59.6613C28.504 59.6613 12.7843 53.1075 0.91126 42.2152C-0.0276823 41.3537 0.820395 40.1844 1.94107 40.8613C14.7834 48.4306 30.6242 53.0152 47.0103 53.0152C58.0656 53.0152 70.2113 50.6767 81.3877 45.8767C83.0536 45.1075 84.4771 46.9844 82.8416 48.2152Z" fill="#E6BE67"/>
<path fill-rule="evenodd" clip-rule="evenodd" d="M86.9907 43.4151C85.7186 41.7536 78.5705 42.6151 75.3297 43.0151C74.3604 43.1382 74.209 42.2767 75.0873 41.6305C80.7816 37.569 90.1407 38.7382 91.2311 40.092C92.3215 41.4767 90.9282 50.9844 85.5974 55.5382C84.7797 56.2459 83.9922 55.8767 84.3556 54.9536C85.5672 51.9074 88.2628 45.0459 86.9907 43.4151Z" fill="#E6BE67"/>
</g>
<defs>
<clipPath id="clip0_208_536">
<rect width="92.0769" height="56" fill="white" transform="translate(0 4)"/>
</clipPath>
</defs>
</svg>
