<svg width="65" height="65" viewBox="0 0 65 65" fill="none" xmlns="http://www.w3.org/2000/svg">
<path d="M29.1382 1.41424C32.0771 3.16095 36.3191 5.07402 38.5094 5.62853C41.9197 6.51574 46.4944 6.07214 49.9046 4.54723C50.7087 4.15907 51.4296 3.85409 51.485 3.85409C51.5405 3.85409 52.0395 4.54723 52.6218 5.40672C53.7862 7.18116 53.8417 7.07026 51.0414 8.15155C46.9935 9.67646 42.5574 10.1201 39.258 9.26057C37.2341 8.73379 34.0456 7.31979 31.4949 5.87806L29.5541 4.74131L29.1937 9.37148C29.0273 11.8945 28.6669 14.7225 28.4451 15.6375C27.641 18.9091 22.9831 27.1436 21.9296 27.1436C21.7909 27.1436 21.2087 26.4504 20.6542 25.6186L19.6561 24.1215L21.2641 22.3193C22.1791 21.3489 23.3158 19.8795 23.7872 19.0754C25.423 16.3306 26.3657 11.0073 26.4488 3.96499C26.4766 1.77468 26.5597 0.000239987 26.6429 0.000239987C26.7261 0.0279655 27.8351 0.665653 29.1382 1.41424Z" fill="white" stroke="white" stroke-width="0.055733"/>
<path d="M15.938 3.0781C16.243 4.2703 16.1044 9.2609 15.6885 11.2017C14.8567 15.1942 12.0565 19.1589 7.42629 23.0405C6.53907 23.7614 5.98456 24.3713 6.17864 24.3713C7.03813 24.399 14.025 27.4489 15.9103 28.6133C19.1819 30.665 24.9488 37.0696 24.9766 38.6777C24.9766 38.8163 24.1725 39.149 23.1744 39.3986L21.3722 39.8145L20.3741 37.9568C18.3502 34.103 15.5221 31.774 9.56116 29.1124C7.89762 28.3638 5.23597 27.3102 3.62789 26.7557C2.01981 26.2289 0.68898 25.6744 0.633528 25.5358C0.605803 25.4249 1.4653 24.5931 2.54659 23.6782C6.06774 20.7393 9.61661 16.7745 10.6979 14.5842C12.1674 11.5898 12.5832 9.51043 12.4446 6.15564L12.306 3.35536L13.5814 3.02265C14.2745 2.8563 15.0508 2.66222 15.3003 2.57904C15.6053 2.49586 15.8271 2.66222 15.938 3.0781Z" fill="white" stroke="white" stroke-width="0.055733"/>
<path d="M59.3562 16.0812C59.3562 16.2476 59.1067 17.6616 58.8017 19.2142C57.9977 23.3453 57.6649 27.2823 57.9699 29.3063C58.4967 33.1602 60.2434 36.709 62.8496 39.232L64.125 40.452L62.9328 42.0323L61.7129 43.585L60.2434 41.9492C58.3304 39.8697 56.5282 36.9308 55.6964 34.6296C55.1419 33.0493 55.0587 32.3838 55.1142 28.9459C55.1419 26.3397 55.336 24.2603 55.6687 22.6244C56.14 20.4896 56.14 20.2123 55.7796 20.351C54.4765 20.85 49.7632 22.1531 47.7115 22.569C43.719 23.4008 37.5639 22.8462 33.4883 21.3213C32.6288 20.9886 31.9079 20.5728 31.9079 20.4064C31.9079 20.2123 32.4347 19.4637 33.1001 18.7429L34.2646 17.412L36.2885 18.2715C39.5047 19.6301 41.7228 19.9905 44.6062 19.6578C48.4878 19.1588 54.6706 17.6338 57.9977 16.303C58.8294 15.998 59.3562 15.8871 59.3562 16.0812Z" fill="white" stroke="white" stroke-width="0.055733"/>
<path d="M43.6641 28.225L45.0226 28.6963L45.0504 32.5779L45.0781 36.4318L46.2703 38.9271C47.6011 41.7274 50.7064 46.4684 53.2294 49.6014C54.1443 50.7382 54.8098 51.764 54.6989 51.8472C54.588 51.9581 53.3126 52.1799 51.8708 52.374C48.017 52.873 43.1373 54.1761 40.8361 55.3129C38.2299 56.5882 35.2078 59.5549 33.877 62.0779C33.3502 63.076 32.9066 63.9355 32.8511 63.991C32.7402 64.1019 29.8845 63.1592 29.6072 62.9097C29.4686 62.7988 29.635 62.1611 29.9677 61.4957C31.7698 57.9191 35.4296 54.0652 38.3685 52.6789C40.3925 51.7086 44.884 50.5441 47.712 50.2668C48.7933 50.1836 49.6528 50.045 49.6528 49.9618C49.6528 49.9064 49.0428 49.1023 48.2943 48.132C46.7416 46.1357 44.7177 43.0582 43.8304 41.3115C42.0837 37.8458 40.6975 27.6428 42.0006 27.7259C42.1669 27.7259 42.9155 27.9477 43.6641 28.225Z" fill="white" stroke="white" stroke-width="0.055733"/>
<path d="M37.7344 40.979C37.7344 42.892 37.7066 42.9475 36.9581 43.1138C33.7696 43.807 30.9971 45.0269 29.1949 46.5241C27.3927 47.9935 23.2616 52.9287 21.0436 56.2557C19.9623 57.8638 19.0474 59.1946 19.0196 59.2501C18.9642 59.3055 18.2988 58.1133 17.5224 56.5884C15.4985 52.6514 13.0586 49.0748 11.2842 47.4667C8.678 45.0823 3.85375 42.9752 0.914843 42.9475H0.0276253V41.0067V39.0659H0.831666C2.35657 39.0659 6.95901 40.4244 8.92753 41.4503C12.5318 43.3356 15.3599 46.6072 17.9383 51.8751L18.9919 53.9822L20.3505 52.0137C23.733 47.0786 26.2837 44.4724 29.6385 42.4484C32.0229 41.0067 35.4332 39.4541 36.9026 39.1768L37.7344 38.9827V40.979Z" fill="white" stroke="white" stroke-width="0.055733"/>
</svg>
