<svg width="64" height="64" viewBox="0 0 64 64" fill="none" xmlns="http://www.w3.org/2000/svg">
<g clip-path="url(#clip0_208_527)">
<path d="M44.9549 31.9943C40.1205 28.7875 36.1886 24.6579 33.2188 19.556C30.5551 14.9795 28.8933 10.0389 28.2771 4.72181C28.1697 3.78252 28.0902 2.84323 28.0187 1.89981C27.9352 0.77845 28.611 0.012949 29.6964 0.00881112C32.2249 -0.00360241 34.7574 0.000535431 37.2859 0.00881112C38.248 0.00881112 38.9358 0.621212 39.0193 1.62671C39.2022 3.7908 39.5321 5.91765 40.1762 7.99071C41.5239 12.3354 43.7781 16.0761 46.9785 19.2001C50.5248 22.6635 54.6953 24.8731 59.4621 25.8496C60.3685 26.0358 61.2829 26.1931 62.2092 26.2262C62.9129 26.2551 63.553 26.4207 64.0023 27.0413V37.0549C63.6683 37.4811 63.2588 37.7625 62.7142 37.779C61.0921 37.8577 59.4939 37.6301 57.9076 37.3404C54.25 36.6742 50.7793 35.4287 47.4795 33.666C46.744 33.2729 46.0284 32.8467 45.3247 32.3957C45.1696 32.2964 45.0146 32.1929 44.9589 31.9943H44.9549Z" fill="#4AD491"/>
<path d="M19.2696 32.0857C19.2338 32.0857 19.202 32.0816 19.1662 32.0774C18.6016 31.945 18.1723 31.5478 17.6872 31.2664C13.5486 28.8706 9.1396 27.352 4.43243 26.7603C3.64525 26.661 2.86205 26.5534 2.06295 26.5576C1.88404 26.5576 1.64948 26.6155 1.58984 26.3258C2.5281 26.1479 3.48225 26.1065 4.42448 25.9286C9.01238 25.0597 13.0596 23.0321 16.586 19.8667C17.5759 18.977 18.4665 17.9922 19.3411 16.9826C20.2595 15.9192 21.1858 15.9109 22.1479 16.9123C23.8535 18.6874 25.559 20.4584 27.2646 22.2377C28.1034 23.1107 28.0995 23.9756 27.3083 24.9066C25.0303 27.5879 22.4541 29.8968 19.5638 31.8333C19.4564 31.9037 19.3173 31.9492 19.2696 32.094V32.0857Z" fill="#9695C9"/>
<path d="M44.9556 31.9941C48.7364 34.4603 52.8155 36.1403 57.1887 37.0589C59.0175 37.4437 60.8662 37.5926 62.7148 37.7788C61.9873 37.8782 61.2558 37.9733 60.5282 38.0768C58.3257 38.383 56.2186 39.0367 54.1791 39.9471C50.8038 41.4574 47.9373 43.696 45.4565 46.4973C45.1981 46.7869 44.9715 47.1055 44.7012 47.3828C43.9935 48.0986 43.0115 48.0945 42.3158 47.3704C40.5029 45.4876 38.69 43.6049 36.885 41.7181C36.1933 40.9939 36.2052 40.1002 36.8572 39.3347C39.1671 36.6202 41.7512 34.2369 44.6932 32.2879C44.8045 32.2134 44.9198 32.139 44.9596 31.9941H44.9556Z" fill="#ADDABD"/>
<path d="M36.236 62.3629C36.2559 63.3932 35.6873 64.0015 34.7014 64.0015H26.9131C25.9072 64.0015 25.287 63.4015 25.2155 62.3546C24.8577 56.934 23.0965 52.0596 19.8444 47.8142C15.6938 42.3895 10.3028 39.1372 3.70325 38.0696C3.36532 38.0158 3.02739 37.9496 2.68548 37.8917C2.22431 37.8917 1.76313 37.8834 1.30991 37.78C0.546582 37.6103 0.00986972 36.9441 0.00986972 36.129C0.00191843 33.4187 0.00191843 30.7084 0.00986972 27.9981C0.00986972 27.0505 0.62212 26.4257 1.60013 26.3223C2.20443 26.5292 2.84053 26.4381 3.45676 26.4961C7.33301 26.8809 11.0463 27.8864 14.6085 29.5167C15.984 30.1456 17.3238 30.8573 18.6119 31.6684C18.7948 31.7801 18.9618 31.9208 19.1407 32.0532C19.1884 32.0449 19.2321 32.0532 19.2759 32.0863C24.9372 35.8352 29.3263 40.8047 32.3796 47.028C34.3396 51.0293 35.5601 55.2706 36.0412 59.7395C36.1366 60.6126 36.2241 61.4857 36.24 62.3629H36.236Z" fill="#5D4CD4"/>
</g>
<defs>
<clipPath id="clip0_208_527">
<rect width="64" height="64" fill="white"/>
</clipPath>
</defs>
</svg>
